:version 1.10
:name ASF
:units
  mass 1
  length 1
  angle deg
:documentation
  ASF file generated by Kaydara
:root
  axis xyz
  order  tx ty tz rx ry rz
  position 0 0 0
  orientation 0 0 0
:bonedata
  begin
    id 1
    name RightUpLegDummy
    direction -0.718183 -0.695806 0.00816078
    length 4.904
    axis 0 0 0 xyz
  end
  begin
    id 2
    name RightUpLeg
    direction 3.53989e-006 -0.995788 0.0916897
    length 17.4976
    axis -3.49089 -0.000906621 0.000287158 xyz
    dof rx ry rz
  end
  begin
    id 3
    name RightLeg
    direction 0.00371093 -0.995096 -0.0988418
    length 16.5821
    axis 3.68512 0.0193738 -0.131023 xyz
    dof rx ry rz
  end
  begin
    id 4
    name RightFoot
    direction 0.000791514 -0.46099 0.887405
    length 3.77069
    axis 4.84075e-005 -0.120479 -0.188788 xyz
    dof rx ry rz
  end
  begin
    id 5
    name RightToes
    direction 0.00124746 -0.014064 0.9999
    length 3.85082
    axis 0.00048216 0.542163 -0.142577 xyz
    dof rx ry rz
  end
  begin
    id 6
    name SpineDummy
    direction 8.36599e-015 1 5.97571e-016
    length 4.6813
    axis 0 0 0 xyz
  end
  begin
    id 7
    name Spine
    direction -4.63632e-008 0.999988 0.00495137
    length 10.1015
    axis -0.00138897 0.000121419 3.25764e-006 xyz
    dof rx ry rz
  end
  begin
    id 8
    name Spine1
    direction 0 0 0
    length 0
    axis -0.00138896 0.000121452 2.39764e-006 xyz
    dof rx ry rz
  end
  begin
    id 9
    name HEadDummy
    direction -3.91456e-008 0.999999 0.00127422
    length 3.43865
    axis -0.00138896 0.000121452 2.39764e-006 xyz
  end
  begin
    id 10
    name HEad
    direction -0.0222688 0.980941 0.193023
    length 5.12695
    axis -0.00138895 0.000121452 2.39764e-006 xyz
    dof rx ry rz
  end
  begin
    id 11
    name LeftShoulder1Dummy
    direction 0.998891 -0.0402508 -0.0244456
    length 3.5433
    axis -0.00138896 0.000121452 2.39764e-006 xyz
  end
  begin
    id 12
    name LeftShoulder1
    direction 0.99951 -0.000327743 0.0313091
    length 4.05031
    axis -0.00138896 0.000121452 2.39764e-006 xyz
    dof rx ry rz
  end
  begin
    id 13
    name LeftArm
    direction 0.998561 -0.00100054 -0.0536182
    length 10.3537
    axis -23.1894 0.134784 0.96751 xyz
    dof rx ry rz
  end
  begin
    id 14
    name LeftForeArm
    direction 0.998903 0.00866434 0.046012
    length 8.70632
    axis -9.91835 -0.06569 -0.177792 xyz
    dof rx ry rz
  end
  begin
    id 15
    name LeftHand
    direction 0.992938 -0.0411636 0.11126
    length 5.32135
    axis -0.00960227 -0.00340091 0.185174 xyz
    dof rx ry rz
  end
  begin
    id 16
    name RightShoulderDummy
    direction -0.998891 -0.0402509 -0.0244414
    length 3.5433
    axis -0.00138896 0.000121452 2.39764e-006 xyz
  end
  begin
    id 17
    name RightShoulder
    direction -0.99951 -0.000327827 0.0313133
    length 4.05031
    axis 0.215806 0.000203644 -0.00680151 xyz
    dof rx ry rz
  end
  begin
    id 18
    name RightArm
    direction -0.998573 -0.000999583 -0.053403
    length 10.3947
    axis -23.2009 -0.134239 -0.9641 xyz
    dof rx ry rz
  end
  begin
    id 19
    name RightForeArm
    direction -0.998898 0.00868026 0.0461306
    length 8.68355
    axis -9.92322 0.0658061 0.178869 xyz
    dof rx ry rz
  end
  begin
    id 20
    name RightHand
    direction -0.992843 -0.0414603 0.112003
    length 5.28593
    axis -0.00960634 0.00330671 -0.185226 xyz
    dof rx ry rz
  end
  begin
    id 21
    name LeftUpLegDummy
    direction 0.718183 -0.695806 0.00816078
    length 4.904
    axis 0 0 0 xyz
  end
  begin
    id 22
    name LeftUpLeg
    direction -6.8115e-006 -0.995793 0.0916336
    length 17.4976
    axis -3.48766 0.00143441 -0.000523914 xyz
    dof rx ry rz
  end
  begin
    id 23
    name LeftLeg
    direction -0.00601357 -0.995091 -0.0987824
    length 16.5821
    axis 3.68177 -0.00654038 -0.00028478 xyz
    dof rx ry rz
  end
  begin
    id 24
    name LeftFoot
    direction -0.00417578 -0.460984 0.887399
    length 3.77069
    axis 1.87232e-006 4.66002e-005 -8.1837e-006 xyz
    dof rx ry rz
  end
  begin
    id 25
    name LeftToes
    direction 0.00818058 -0.00485161 0.999955
    length 3.85048
    axis 1.06246e-005 4.65855e-005 -8.18502e-006 xyz
    dof rx ry rz
  end
:hierarchy
  begin
    root RightUpLegDummy SpineDummy LeftUpLegDummy
    RightUpLegDummy RightUpLeg
    RightUpLeg RightLeg
    RightLeg RightFoot
    RightFoot RightToes
    SpineDummy Spine
    Spine Spine1
    Spine1 HEadDummy LeftShoulder1Dummy RightShoulderDummy
    HEadDummy HEad
    LeftShoulder1Dummy LeftShoulder1
    LeftShoulder1 LeftArm
    LeftArm LeftForeArm
    LeftForeArm LeftHand
    RightShoulderDummy RightShoulder
    RightShoulder RightArm
    RightArm RightForeArm
    RightForeArm RightHand
    LeftUpLegDummy LeftUpLeg
    LeftUpLeg LeftLeg
    LeftLeg LeftFoot
    LeftFoot LeftToes
  end

:SAMPLES-PER-SECOND 24
:FULLY-SPECIFIED
:DEGREES
1
root  0.517906 40.5772 5.55234 -179.967 2.48769 179.817
RightUpLeg  3.13541 -1.53439 -1.52242
RightLeg  2.54435 -8.88736 1.07623
RightFoot  -1.37078 -0.234413 2.48301
RightToes  -1.46215e-006 3.27826e-006 1.63871e-007
Spine  1.87694 0.682783 2.27903
Spine1  2.61676 0.742039 -0.42375
HEad  4.45931 -4.15285 -1.16078
LeftShoulder1  0.244435 1.2881 -2.74204
LeftArm  -28.6972 -0.0391487 1.04064
LeftForeArm  -5.63272 -3.44526 -7.41049
LeftHand  0.118635 6.72775 12.0877
RightShoulder  0.131234 -2.18678 1.61388
RightArm  -38.8659 3.69482 -6.15643
RightForeArm  -2.39303 -2.26665 6.03557
RightHand  -0.521088 -0.536091 -12.6051
LeftUpLeg  3.29644 -1.18621 0.421447
LeftLeg  -0.496144 14.1965 0.180114
LeftFoot  0.601709 0.19823 -2.10995
LeftToes  1.24762e-006 1.46925e-008 1.29056e-009
2
root  0.517906 40.572 5.48194 179.957 2.58138 179.787
RightUpLeg  3.26819 -1.58821 -1.58084
RightLeg  2.66215 -8.73543 1.0766
RightFoot  -1.51921 -0.235001 2.49213
RightToes  -1.46215e-006 3.27826e-006 1.63871e-007
Spine  1.79358 0.74431 2.19509
Spine1  2.58659 0.777969 -0.31882
HEad  4.35797 -4.52212 -1.15874
LeftShoulder1  0.244435 1.27742 -2.78621
LeftArm  -28.6923 -0.147947 1.14539
LeftForeArm  -5.39852 -3.28442 -7.38077
LeftHand  0.113169 6.65605 12.2341
RightShoulder  0.13122 -2.23093 1.54274
RightArm  -38.9801 3.81849 -6.24993
RightForeArm  -2.43815 -2.30471 6.00812
RightHand  -0.519307 -0.627125 -12.6414
LeftUpLeg  3.50096 -1.16606 0.376355
LeftLeg  -0.484244 14.2831 0.186784
LeftFoot  0.500466 0.200761 -2.14932
LeftToes  1.24762e-006 1.46925e-008 1.29056e-009
3
root  0.516149 40.5653 5.36629 179.899 2.72121 179.783
RightUpLeg  3.49298 -1.60022 -1.59936
RightLeg  2.68581 -8.5801 1.05429
RightFoot  -1.66997 -0.235656 2.5023
RightToes  -1.46215e-006 3.27826e-006 1.63871e-007
Spine  1.76717 0.778744 2.22255
Spine1  2.24658 0.819306 -0.39418
HEad  4.31518 -4.90861 -0.905773
LeftShoulder1  0.240597 1.29671 -2.7896
LeftArm  -29.1621 -0.422481 1.24615
LeftForeArm  -4.38049 -2.75105 -7.11538
LeftHand  0.0898137 6.45128 11.996
RightShoulder  0.131217 -2.19993 1.46199
RightArm  -39.0253 4.03153 -6.29734
RightForeArm  -2.08804 -2.52806 5.95285
RightHand  -0.527816 -0.52983 -12.5973
LeftUpLeg  3.75624 -1.09308 0.366315
LeftLeg  -0.439938 14.3905 0.174883
LeftFoot  0.313361 0.200131 -2.13951
LeftToes  1.24762e-006 1.46925e-008 1.29056e-009
4
root  0.505282 40.5601 5.25395 179.943 2.85437 179.84
RightUpLeg  3.67478 -1.55647 -1.55296
RightLeg  2.55297 -8.48821 1.04325
RightFoot  -1.72691 -0.237817 2.53582
RightToes  -1.46215e-006 3.27826e-006 1.63871e-007
Spine  1.51905 0.787836 2.44617
Spine1  2.08954 0.885081 -0.7428
HEad  4.29185 -4.91673 -0.548637
LeftShoulder1  0.212383 1.52507 -2.58457
LeftArm  -29.462 -0.77386 1.03154
LeftForeArm  -3.80204 -2.58548 -7.00793
LeftHand  0.0834339 6.42739 11.614
RightShoulder  0.131237 -2.17082 1.6206
RightArm  -38.977 4.29501 -6.35417
RightForeArm  -1.699 -2.80426 5.91957
RightHand  -0.546347 -0.35226 -12.6015
LeftUpLeg  3.87651 -0.991225 0.424606
LeftLeg  -0.36397 14.4432 0.14821
LeftFoot  0.100764 0.200214 -2.14081
LeftToes  1.24762e-006 1.46925e-008 1.29056e-009
5
root  0.488995 40.5569 5.13935 -179.947 2.95465 179.917
RightUpLeg  3.8305 -1.51791 -1.50204
RightLeg  2.34635 -8.42965 1.06087
RightFoot  -1.74633 -0.241783 2.59737
RightToes  -1.46215e-006 3.27826e-006 1.63871e-007
Spine  0.878983 0.796288 2.61771
Spine1  2.48449 0.933341 -1.00974
HEad  4.19573 -4.87315 -0.32139
LeftShoulder1  0.204621 1.5555 -2.32597
LeftArm  -28.8926 -0.606443 0.879316
LeftForeArm  -4.54036 -3.1353 -7.28888
LeftHand  0.117365 6.73999 11.8966
RightShoulder  0.136901 -2.15011 1.93063
RightArm  -38.747 4.4082 -6.50195
RightForeArm  -2.0396 -2.7261 6.03818
RightHand  -0.536035 -0.592861 -12.9647
LeftUpLeg  3.95411 -0.955539 0.466809
LeftLeg  -0.356768 14.4858 0.153693
LeftFoot  -0.0787514 0.206387 -2.23681
LeftToes  1.24762e-006 1.46925e-008 1.29056e-009
6
root  0.472164 40.5541 5.01516 -179.88 3.03914 179.977
RightUpLeg  4.0563 -1.50013 -1.47029
RightLeg  2.12939 -8.37245 1.07679
RightFoot  -1.77617 -0.244338 2.637
RightToes  -1.46215e-006 3.27826e-006 1.63871e-007
Spine  0.234292 0.800422 2.54586
Spine1  2.96496 0.91279 -0.930948
HEad  4.18958 -4.93264 -0.316081
LeftShoulder1  0.2527 1.11563 -2.40673
LeftArm  -28.4229 -0.0106684 1.24327
LeftForeArm  -4.87462 -3.421 -7.39994
LeftHand  0.114252 6.69807 11.9698
RightShoulder  0.150304 -2.01606 1.92002
RightArm  -38.4013 4.20211 -6.47613
RightForeArm  -2.7374 -2.37699 6.23257
RightHand  -0.488961 -1.14348 -13.2964
LeftUpLeg  4.14586 -0.963298 0.466774
LeftLeg  -0.454699 14.5654 0.168933
LeftFoot  -0.225641 0.209851 -2.29068
LeftToes  1.24762e-006 1.46925e-008 1.29056e-009
7
root  0.44702 40.548 4.90141 -179.89 3.16542 -179.973
RightUpLeg  4.27472 -1.50829 -1.47745
RightLeg  2.05867 -8.23246 1.08359
RightFoot  -1.85324 -0.245444 2.65415
RightToes  -1.46215e-006 3.27826e-006 1.63871e-007
Spine  -0.11703 0.868689 2.38307
Spine1  3.13013 0.927965 -0.706815
HEad  4.34987 -4.8455 -0.588832
LeftShoulder1  0.271396 1.00895 -2.75279
LeftArm  -28.873 -0.250035 1.48267
LeftForeArm  -4.10597 -2.95037 -7.17823
LeftHand  0.0729203 6.36116 11.1818
RightShoulder  0.146355 -2.01292 1.5808
RightArm  -38.5566 4.07873 -6.1434
RightForeArm  -2.59641 -2.36942 6.17147
RightHand  -0.466864 -1.20914 -12.8842
LeftUpLeg  4.38837 -0.93768 0.45261
LeftLeg  -0.499802 14.6853 0.176776
LeftFoot  -0.394209 0.207048 -2.24708
LeftToes  1.24762e-006 1.46925e-008 1.29056e-009
8
root  0.413092 40.5398 4.80107 -179.904 3.30008 -179.932
RightUpLeg  4.39892 -1.54497 -1.53027
RightLeg  2.13826 -8.03708 1.09411
RightFoot  -1.97009 -0.249227 2.71285
RightToes  -1.46215e-006 3.27826e-006 1.63871e-007
Spine  -0.389003 0.952608 2.3177
Spine1  3.22286 0.998674 -0.685254
HEad  4.5284 -4.64304 -0.835314
LeftShoulder1  0.22469 1.45483 -2.84819
LeftArm  -29.196 -1.0478 1.2003
LeftForeArm  -4.0357 -2.70449 -7.16624
LeftHand  0.0927221 6.60984 10.9089
RightShoulder  0.127208 -2.20415 1.55457
RightArm  -39.1218 4.35963 -5.97137
RightForeArm  -1.77791 -2.77234 5.90367
RightHand  -0.487856 -0.752292 -12.1864
LeftUpLeg  4.56766 -0.932381 0.406238
LeftLeg  -0.458407 14.8212 0.218846
LeftFoot  -0.568211 0.207452 -2.25337
LeftToes  1.24762e-006 1.46925e-008 1.29056e-009
9
root  0.383851 40.534 4.69965 -179.868 3.36038 -179.912
RightUpLeg  4.50443 -1.56939 -1.57731
RightLeg  2.15742 -7.93948 1.08928
RightFoot  -2.06442 -0.256068 2.819
RightToes  -1.46215e-006 3.27826e-006 1.63871e-007
Spine  -0.8091 0.921638 2.28828
Spine1  3.49882 0.999125 -0.869131
HEad  4.64141 -4.49412 -0.699105
LeftShoulder1  0.214252 1.51085 -2.60883
LeftArm  -28.8307 -0.929418 1.0729
LeftForeArm  -4.62725 -2.98065 -7.33654
LeftHand  0.130176 6.96496 11.2664
RightShoulder  0.134134 -2.17518 1.90961
RightArm  -39.1086 4.52428 -6.14404
RightForeArm  -1.67212 -2.96702 5.87241
RightHand  -0.498248 -0.665446 -12.2286
LeftUpLeg  4.7122 -0.981584 0.333091
LeftLeg  -0.482054 14.9237 0.267807
LeftFoot  -0.68904 0.209095 -2.27891
LeftToes  1.24762e-006 1.46925e-008 1.29056e-009
10
root  0.358576 40.5297 4.60461 -179.821 3.40323 -179.883
RightUpLeg  4.61248 -1.54673 -1.57482
RightLeg  2.12672 -7.92314 1.04979
RightFoot  -2.13041 -0.263486 2.9341
RightToes  -1.46215e-006 3.27826e-006 1.63871e-007
Spine  -1.24105 0.868833 2.23845
Spine1  3.83153 0.96837 -1.00156
HEad  4.62195 -4.26842 -0.483449
LeftShoulder1  0.251573 1.12041 -2.3845
LeftArm  -28.7264 -0.295988 1.17914
LeftForeArm  -4.39744 -3.08212 -7.27551
LeftHand  0.102534 6.70472 10.9874
RightShoulder  0.148367 -2.04085 1.96433
RightArm  -38.5893 4.2741 -6.10036
RightForeArm  -2.42796 -2.69968 6.0976
RightHand  -0.472186 -1.12516 -12.7895
LeftUpLeg  4.83789 -0.996498 0.297547
LeftLeg  -0.521198 14.991 0.280738
LeftFoot  -0.793475 0.205011 -2.21541
LeftToes  1.24762e-006 1.46925e-008 1.29056e-009
11
root  0.325668 40.5246 4.52006 -179.814 3.49973 -179.803
RightUpLeg  4.72841 -1.50673 -1.5406
RightLeg  2.1309 -7.85792 1.01876
RightFoot  -2.18538 -0.270761 3.04698
RightToes  -1.46215e-006 3.27826e-006 1.63871e-007
Spine  -1.51215 0.884621 2.26947
Spine1  4.06236 0.97877 -1.03754
HEad  4.40134 -3.78802 -0.561784
LeftShoulder1  0.255691 1.07277 -2.34237
LeftArm  -29.047 -0.292304 1.03916
LeftForeArm  -4.06072 -2.9597 -7.15349
LeftHand  0.0800758 6.51156 10.5724
RightShoulder  0.131244 -2.17952 1.69292
RightArm  -38.5865 4.22308 -5.75545
RightForeArm  -2.73969 -2.51646 6.15743
RightHand  -0.457735 -1.25978 -12.782
LeftUpLeg  4.95438 -0.942713 0.324073
LeftLeg  -0.463333 15.0376 0.292701
LeftFoot  -0.944165 0.202178 -2.17134
LeftToes  1.24762e-006 1.46925e-008 1.29056e-009
12
root  0.292186 40.5197 4.43041 -179.812 3.56145 -179.714
RightUpLeg  4.89701 -1.50895 -1.52982
RightLeg  2.06871 -7.76707 1.04673
RightFoot  -2.2204 -0.276956 3.14311
RightToes  -1.46215e-006 3.27826e-006 1.63871e-007
Spine  -1.79853 0.852354 2.34991
Spine1  4.3164 0.95071 -1.13131
HEad  4.12189 -3.17476 -0.680613
LeftShoulder1  0.244211 1.19027 -2.38513
LeftArm  -29.0997 -0.419887 0.991167
LeftForeArm  -4.39138 -2.99449 -7.18462
LeftHand  0.097612 6.69711 10.6703
RightShoulder  0.125042 -2.25275 1.79787
RightArm  -39.0141 4.57642 -5.8193
RightForeArm  -2.4307 -2.7802 5.99993
RightHand  -0.478842 -0.88817 -12.2931
LeftUpLeg  5.09623 -0.893061 0.36078
LeftLeg  -0.428902 15.035 0.305222
LeftFoot  -1.10017 0.204771 -2.21168
LeftToes  1.24762e-006 1.46925e-008 1.29056e-009
13
root  0.269019 40.5159 4.3476 -179.752 3.55923 -179.693
RightUpLeg  4.97958 -1.56166 -1.58754
RightLeg  2.03959 -7.69191 1.09438
RightFoot  -2.27448 -0.28075 3.20197
RightToes  -1.46215e-006 3.27826e-006 1.63871e-007
Spine  -2.15256 0.802815 2.27927
Spine1  4.54971 0.910986 -1.20155
HEad  3.996 -2.71529 -0.641075
LeftShoulder1  0.25537 1.09946 -2.45933
LeftArm  -29.023 -0.38492 1.22799
LeftForeArm  -4.43924 -3.04111 -7.19966
LeftHand  0.100533 6.7403 10.5708
RightShoulder  0.150293 -2.04682 2.16515
RightArm  -39.1435 4.68049 -6.23993
RightForeArm  -2.27692 -3.02652 5.90226
RightHand  -0.489325 -0.703778 -12.1024
LeftUpLeg  5.17868 -0.886643 0.345263
LeftLeg  -0.455666 15.0255 0.288022
LeftFoot  -1.18774 0.204918 -2.2217
LeftToes  1.24762e-006 1.46925e-008 1.29056e-009
14
root  0.250579 40.5151 4.28933 -179.675 3.57648 -179.728
RightUpLeg  4.9136 -1.61618 -1.68483
RightLeg  2.17931 -7.60103 1.10165
RightFoot  -2.34875 -0.284125 3.25435
RightToes  -1.46215e-006 3.27826e-006 1.63871e-007
Spine  -2.30184 0.835587 2.02005
Spine1  4.50638 0.914565 -1.04153
HEad  4.03897 -2.4647 -0.563663
LeftShoulder1  0.254066 1.13809 -2.59422
LeftArm  -29.0746 -0.712628 1.29086
LeftForeArm  -4.19549 -2.95916 -7.20322
LeftHand  0.0984006 6.7237 10.4631
RightShoulder  0.161002 -1.93375 2.09085
RightArm  -38.9712 4.36369 -6.22854
RightForeArm  -2.28566 -2.85703 5.94914
RightHand  -0.471657 -0.922278 -12.2127
LeftUpLeg  5.18061 -0.910684 0.277787
LeftLeg  -0.451857 15.0667 0.276619
LeftFoot  -1.19295 0.201886 -2.1805
LeftToes  1.24762e-006 1.46925e-008 1.29056e-009
